<svg height="512" viewBox="0 0 40 60" width="512" xmlns="http://www.w3.org/2000/svg"><g id="Page-1" fill="none" fill-rule="evenodd"><g id="077---Vampire" fill-rule="nonzero" transform="translate(-1 -1)"><path id="Shape" d="m38.96 24.57c-.2934233 1.886129-1.8642893 3.3111586-3.77 3.42-.4811914.029785-.9635657-.0347581-1.42-.19-.6627963 2.2339506-1.7156977 4.3329822-3.11 6.2-1.5986306 2.2251309-3.9039207 3.8430639-6.54 4.59v.01c-2.045812.5333333-4.194188.5333333-6.24 0v-.01c-2.6373202-.7443257-4.9434024-2.3628146-6.54-4.59-1.40192272-1.862302-2.45554008-3.962761-3.11-6.2-.45643431.1552419-.93880857.219785-1.42.19-1.90571068-.1088414-3.47657673-1.533871-3.77-3.42-.16294207-1.1481783.17954673-2.3106382.93898522-3.1870609.7594385-.8764228 1.86133413-1.3808408 3.02101478-1.3829391 0 0 2.01-9 10.03-9 1.258214.0015524 2.4414026.5987103 3.19 1.61.186951.2411121.4749005.3822116.78.3822116s.593049-.1410995.78-.3822116c.7468998-1.013301 1.9311762-1.6110079 3.19-1.61 8.02 0 10.03 9 10.03 9 1.1596806.0020983 2.2615763.5065163 3.0210148 1.3829391.7594385.8764227 1.1019273 2.0388826.9389852 3.1870609z" fill="#ececec"/><path id="Shape" d="m17.22 12.61c.186951.2411121.4749005.3822116.78.3822116s.593049-.1410995.78-.3822116c.2114211-.269295.452246-.5141448.718-.73-.6923217-.576651-1.5670212-.8885373-2.468-.88-.6081265.0039353-1.2145089.0655446-1.811.184.7949127.2639081 1.4920987.7607533 2.001 1.426z" fill="#c6cfd3"/><path id="Shape" d="m35 20s-2.01-9-10.03-9c-.4038003-.000642-.8052508.061431-1.19.184 6.507 1.225 8.22 8.816 8.22 8.816 1.1596806.0020983 2.2615763.5065163 3.0210148 1.3829391.7594385.8764227 1.1019273 2.0388826.9389852 3.1870609-.2934233 1.886129-1.8642893 3.3111586-3.77 3.42-.4811914.029785-.9635657-.0347581-1.42-.19-.6627963 2.2339506-1.7156977 4.3329822-3.11 6.2-1.5986306 2.2251309-3.9039207 3.8430639-6.54 4.59v.01c-.5323154.1377819-1.0736457.2380283-1.62.3.4975652.0631463.9984558.096539 1.5.1 1.0530409.0040601 2.1020403-.130427 3.12-.4v-.01c2.6360793-.7469361 4.9413694-2.3648691 6.54-4.59 1.3943023-1.8670178 2.4472037-3.9660494 3.11-6.2.4564343.1552419.9388086.219785 1.42.19 1.9057107-.1088414 3.4765767-1.533871 3.77-3.42.1629421-1.1481783-.1795467-2.3106382-.9389852-3.1870609-.7594385-.8764228-1.8613342-1.3808408-3.0210148-1.3829391z" fill="#c6cfd3"/><path id="Shape" d="m35 15.99v4.01s-2.01-9-10.03-9c-1.2588238-.0010079-2.4431002.596699-3.19 1.61-.186951.2411121-.4749005.3822116-.78.3822116s-.593049-.1410995-.78-.3822116c-.7485974-1.0112897-1.931786-1.6084476-3.19-1.61-8.02 0-10.03000091 9-10.03000091 9l.00000091-4c-.00276142-7.7319865 6.2630135-14.00223858 13.995-14.005s14.0022386 6.2630135 14.005 13.995z" fill="#37474f"/><path id="Shape" d="m30.08 44.24-4.45 4.17c-.4027547.378682-.6308049.9071793-.63 1.46v10.13h-4v-13l4-3h3c.7003614-.002119 1.3985249.0784383 2.08.24z" fill="#eb4335"/><path id="Shape" d="m21 47v13h-4v-10.13c.0008049-.5528207-.2272453-1.081318-.63-1.46l-4.45-4.17c.6848717-.1615272 1.386341-.2420787 2.09-.24h2.99z" fill="#eb4335"/><path id="Shape" d="m17 49.87.0000021 10.13h-11.0000021c-.55228475 0-1-.4477153-1-1v-6c.00815361-4.1672449 2.86785219-7.7873258 6.92-8.76l4.45 4.17c.4027547.378682.6308049.9071793.63 1.46z" fill="#37474f"/><path id="Shape" d="m17.88 38.59v.01c-.2 1.43-.88 5.4-.88 5.4h-2.99c-.703659-.0020787-1.4051283.0784728-2.09.24l-.16-.15-9.55-8.97c-.19518154-.1807306-.2596246-.4626265-.16235873-.7102124.09726587-.2475858.33635272-.4102378.60235873-.4097876h8.69c1.5965976 2.2271854 3.9026798 3.8456743 6.54 4.59z" fill="#bf1e1e"/><path id="Shape" d="m37 52.99v6.01c0 .5522847-.4477153 1-1 1h-11.0000021l.0000021-10.13c-.0008049-.5528207.2272453-1.081318.63-1.46l4.45-4.17c4.0541248.9630238 6.9170615 4.5830666 6.92 8.75z" fill="#37474f"/><path id="Shape" d="m25 44-4 3-4-3s.68-3.97.88-5.4c2.045812.5333333 4.194188.5333333 6.24 0 .2 1.43.88 5.4.88 5.4z" fill="#c6cfd3"/><path id="Shape" d="m39.79 35.12-9.55 8.97-.16.15c-.6814751-.1615617-1.3796386-.242119-2.08-.24h-3s-.68-3.97-.88-5.4v-.01c2.6360793-.7469361 4.9413694-2.3648691 6.54-4.59h8.69c.266006-.0004502.5050929.1622018.6023587.4097876.0972659.2475859.0328228.5294818-.1623587.7102124z" fill="#bf1e1e"/><path id="Shape" d="m15 29s0 4 2 4 2-4 2-4" fill="#ffe23a"/><path id="Shape" d="m23 29s0 4 2 4 2-4 2-4" fill="#ffe23a"/><circle id="Oval" cx="26.5" cy="21.5" fill="#37474f" r="2.5"/><circle id="Oval" cx="15.5" cy="21.5" fill="#37474f" r="2.5"/><path id="Shape" d="m16.644 8c-.4667203.00145625-.8723815-.32013139-.9774508-.77487347-.1050694-.45474207.1183982-.92169159.5384508-1.12512653 2.1727635-1.05006419 4.6295824-1.35984464 6.995-.882.5415152.11045696.8909569.63898481.7805 1.18049999-.110457.54151519-.6389848.89095694-1.1805.78050001-1.9348124-.39048174-3.9442383-.13763542-5.722.72-.1351001.06624268-.2835338.10078602-.434.101z" fill="#ececec"/><g fill="#000"><path id="Shape" d="m1.116 34.043c-.25074507.6282505-.08898574 1.3460327.407 1.806l8.5 7.977c-3.65621486 1.5847979-6.02253969 5.1890921-6.023 9.174v6c0 1.1045695.8954305 2 2 2h30c1.1045695 0 2-.8954305 2-2v-6.006c-.0002586-3.9845265-2.3673384-7.5881933-6.024-9.171l8.494-7.971c.4945029-.4607468.6573164-1.1768417.4106417-1.806105s-.8527594-1.0439457-1.5286417-1.045895h-6.8c.7688755-1.273496 1.401051-2.6246622 1.886-4.031.265757.0272065.5332155.0338929.8.02 2.3845934-.1346965 4.3498282-1.9193783 4.713-4.28v-.009c.1978945-1.442995-.2370013-2.9011536-1.193-4-.719709-.8204871-1.6884795-1.3825005-2.758-1.6v-3.11c-.0027614-8.28427125-6.7207288-14.99776142-15.005-14.995s-14.99776142 6.72072875-14.995 15.005v3.1c-1.06966889.2178534-2.03865206.7797863-2.759 1.6-1.26593292 1.4401939-1.59506691 3.4782128-.8468399 5.2436875.74822702 1.7654747 2.44156255 2.9463495 4.3568399 3.0383125.26939135.0174167.53980024.0107234.808-.02.4816437 1.4087127 1.11150802 2.7623009 1.879 4.038h-6.79c-.67734189-.0030012-1.28648851.4117115-1.532 1.043zm4.884 18.957c.00233517-3.5106167 2.2901229-6.6107231 5.644-7.648l4.036 3.787c.2011237.189103.3151261.4529371.315.729l.0000001 9.132h-9.9950001zm15-13c.7689413-.0002793 1.5363218-.0692197 2.293-.206.2 1.242.471 2.9.618 3.772l-2.911 2.184-2.911-2.183c.149-.877.429-2.529.626-3.771.7541193.1355575 1.5187939.2038261 2.285.204zm3 9.867v9.133h-2v-11.5l3.332-2.5h2.468l-2.853 2.678c-.6037187.5680691-.9463384 1.3600378-.947 2.189zm-7.334-4.867 3.334 2.5v11.5h-2v-9.133c-.0010615-.8292873-.344444-1.6213464-.949-2.189l-2.851-2.678zm16.994 2.339c1.5043123 1.4965876 2.3469855 3.5330478 2.34 5.655l.0000431 6.006h-10.0000432l.0000001-9.133c-.0001432-.276561.1142537-.5408323.316-.73l4.038-3.789c1.2488029.3820564 2.3842567 1.0658702 3.306 1.991zm4.799-12.339-8.695 8.16c-.5788982-.1042618-1.1657919-.1577982-1.754-.16h-2.165c-.164-.973-.432-2.586-.609-3.724 2.3236743-.8570343 4.3670962-2.3362407 5.907-4.276zm-17.459-32c6.8767358-.00738529 12.5642921 5.35288648 12.964 12.218-1.8511201-3.2210942-5.2798915-5.2101247-8.995-5.218-1.5655039-.00833202-3.0397632.7356797-3.963 2-.9310149-1.2625649-2.408297-2.00547771-3.977-2-3.7122331.0078598-7.13881403 1.9938361-8.991 5.211.42020653-6.85363611 6.0955029-12.20011378 12.962-12.211zm-12.316 23.909c-.14099248-.0715874-.29687465-.1089306-.455-.109-.11027668-.0004526-.219831.0178065-.324.054-.33700797.1167385-.69432118.1633593-1.05.137-1.42048879-.0921244-2.59103745-1.1492205-2.827-2.553-.12499038-.8630233.13082303-1.7378026.70110713-2.3975054s1.39886625-1.0393487 2.27089287-1.0404946c.03096506-.0047911.06167031-.0111324.092-.019.06307115-.0061512.12537635-.0185452.186-.037.06431149-.0175384.12664158-.0416662.186-.072.05118061-.0290035.09970212-.0624666.145-.1.05393932-.0404381.10323921-.0867196.147-.138.03821385-.0462113.07171366-.096126.1-.149.03429596-.0581219.0621283-.1198226.083-.184.01408765-.0269938.02677122-.0546974.038-.083.074-.334 1.94-8.218 9.052-8.218.9511305-.00226 1.8448791.454669 2.4 1.227.3754021.4874168.9557749.7729854 1.571.773.6142184.0007844 1.1940936-.2832437 1.57-.769.5537124-.7739456 1.4473767-1.232512 2.399-1.231 7.112 0 8.978 7.884 9.054 8.219.009.038.032.069.044.105.0144163.0409009.031109.0809635.05.12.0359888.0716216.0802945.1387514.132.2.0264897.0329524.0548708.0643386.085.094.0607815.0531573.1279689.0985088.2.135.0336712.0216469.0687491.0410232.105.058.1120882.0447119.2313438.0687663.352.071l.009-.002c.8712473.0015599 1.6989885.3809262 2.2689382 1.0398887.5699498.6589624.826072 1.5327334.7020618 2.3951113-.2374114 1.4083611-1.4135639 2.4676855-2.839 2.557-.3519523.0203434-.7045604-.02649-1.039-.138-.2562347-.0877277-.5370951-.0677706-.7783506.0553074s-.4222709.3387497-.5016494.5976926c-.6257272 2.0738581-1.5926335 4.0289623-2.861 5.785-2.0190514 2.9315044-5.3453547 4.6888552-8.9048545 4.7046078-3.5594997.0157527-6.9012269-1.7120886-8.9461455-4.6256078-.0219985-.0324991-.0460473-.0635622-.072-.093-1.2618125-1.7530227-2.22264156-3.7040837-2.843-5.773-.08067224-.2579284-.26153706-.4726604-.502-.596zm2.164 8.091c1.5430464 1.9439036 3.5921041 3.4248166 5.922 4.28-.178 1.137-.45 2.749-.615 3.72h-2.155c-.5922659.0023668-1.183188.0565737-1.766.162l-8.693-8.162z"/><path id="Shape" d="m13 29c0 .5522847.4477153 1 1 1h.052c.2 2.019 1.049 4 2.948 4s2.745-1.981 2.948-4h2.1c.2 2.019 1.049 4 2.948 4s2.745-1.981 2.948-4h.056c.5522847 0 1-.4477153 1-1s-.4477153-1-1-1h-14c-.5522847 0-1 .4477153-1 1zm4 3c-.452 0-.784-.99-.925-2h1.85c-.142 1.01-.474 2-.925 2zm8 0c-.452 0-.784-.99-.925-2h1.85c-.142 1.01-.474 2-.925 2z"/><path id="Shape" d="m26.5 25c1.9329966 0 3.5-1.5670034 3.5-3.5s-1.5670034-3.5-3.5-3.5-3.5 1.5670034-3.5 3.5 1.5670034 3.5 3.5 3.5zm0-5c.8284271 0 1.5.6715729 1.5 1.5s-.6715729 1.5-1.5 1.5-1.5-.6715729-1.5-1.5.6715729-1.5 1.5-1.5z"/><path id="Shape" d="m15.5 25c1.9329966 0 3.5-1.5670034 3.5-3.5s-1.5670034-3.5-3.5-3.5-3.5 1.5670034-3.5 3.5 1.5670034 3.5 3.5 3.5zm0-5c.8284271 0 1.5.6715729 1.5 1.5s-.6715729 1.5-1.5 1.5-1.5-.6715729-1.5-1.5.6715729-1.5 1.5-1.5z"/></g></g></g></svg>